<svg width="30" height="30" viewBox="0 0 30 30" fill="none" xmlns="http://www.w3.org/2000/svg">
<path d="M8.62099 17.9044L10.3287 16.1375L8.20565 13.2726L5.50251 9.44771C4.54753 11.0775 4 12.9746 4 15C4 18.3552 5.50251 21.3593 7.8722 23.3768L11.3034 20.9518C10.1363 20.2248 9.19614 19.1662 8.62099 17.9044Z" fill="#7578B5"/>
<path d="M12.0956 8.62099L13.8625 10.3287L16.7274 8.20565L20.5523 5.50251C18.9225 4.54753 17.0254 4 15 4C11.6448 4 8.64072 5.50251 6.62323 7.8722L9.04816 11.3034C9.77525 10.1363 10.8338 9.19614 12.0956 8.62099Z" fill="#7578B5"/>
<path d="M19.6713 13.8625L21.7943 16.7274L24.4975 20.5523C25.4525 18.9225 26 17.0254 26 15C26 11.6448 24.4975 8.64072 22.1278 6.62323L18.6966 9.04816C19.8637 9.77525 20.8039 10.8338 21.379 12.0956L19.6713 13.8625Z" fill="#7578B5"/>
<path d="M23.3768 22.1278L20.9518 18.6966C20.2248 19.8637 19.1662 20.8039 17.9044 21.379L16.1375 19.6713L13.2726 21.7944L9.44771 24.4975C11.0775 25.4525 12.9746 26 15 26C18.3552 26 21.3593 24.4975 23.3768 22.1278Z" fill="#7578B5"/>
</svg>
