<svg width="30" height="30" viewBox="0 0 30 30" fill="none" xmlns="http://www.w3.org/2000/svg">
<path fill-rule="evenodd" clip-rule="evenodd" d="M10.8199 17.2656C6.80311 17.8596 4.00052 19.2031 4.00052 20.7654C4.00052 22.878 9.12595 24.5907 15.4485 24.5907C21.771 24.5907 26.8965 22.878 26.8965 20.7654C26.8965 19.2031 24.0939 17.8596 20.0771 17.2656C18.6974 17.5462 17.1217 17.7051 15.4485 17.7051C13.8173 17.7051 12.2787 17.5541 10.924 17.2867L10.8199 17.2656Z" fill="#7578B5"/>
<path fill-rule="evenodd" clip-rule="evenodd" d="M12.5497 10.9761C8.91168 11.3812 6.2887 12.5282 6.2887 13.88C6.2887 15.5701 10.389 16.9402 15.4471 16.9402C20.5051 16.9402 24.6055 15.5701 24.6055 13.88C24.6055 12.5282 21.9825 11.3812 18.3444 10.9761C17.4533 11.1218 16.4744 11.2023 15.4471 11.2023C14.4557 11.2023 13.5094 11.1273 12.6436 10.9912L12.5497 10.9761Z" fill="#7578B5"/>
<path d="M15.4496 10.5904C11.656 10.5904 8.58078 9.56277 8.58078 8.29518C8.58078 7.02759 11.656 6 15.4496 6C19.2431 6 22.3184 7.02759 22.3184 8.29518C22.3184 9.56277 19.2431 10.5904 15.4496 10.5904Z" fill="#7578B5"/>
</svg>
