<svg width="30" height="30" viewBox="0 0 30 30" fill="none" xmlns="http://www.w3.org/2000/svg">
<path d="M14.2863 14.6188C14.1681 12.4642 13.3559 10.2735 12.5557 8.47478C12.3656 8.0476 12.3044 6.71226 13.9392 7.0039C15.96 7.71148 21.2032 9.74086 21.4939 12.2807C21.6105 13.2992 20.8791 14.0278 19.0251 14.2731C17.171 14.5183 15.1515 14.584 14.2863 14.6188ZM14.2863 14.6188C14.4045 16.7735 14.2897 18.6013 13.7265 20.6934M13.7265 20.6934C13.189 23.5067 11.5241 25.0144 10.213 25.3873C3.50791 27.2947 3.23374 17.184 3.95586 11.8099C4.39591 8.53513 5.96622 5.32996 7.88302 4.13317C8.68169 3.6345 10.4184 2.98128 13.1405 3.83674C16.4715 4.88356 19.8456 6.6683 20.7304 7.18617C21.6152 7.70405 23.7145 9.3128 24.3861 10.276C25.6813 12.1337 26.1996 13.062 25.5852 15.4107C24.9708 17.7594 22.6342 18.1095 21.8902 18.2442C18.621 18.836 16.8678 19.6198 13.7265 20.6934Z" stroke="#7578B5" stroke-width="1.46758"/>
<path d="M10.355 14.7618C10.3851 15.7319 10.1951 16.5805 9.90009 17.1634C9.59084 17.7745 9.26298 17.9354 9.07377 17.9413C8.88456 17.9471 8.54734 17.8069 8.20078 17.2162C7.87017 16.6527 7.62786 15.8175 7.59774 14.8474C7.56762 13.8772 7.75765 13.0286 8.05266 12.4457C8.36191 11.8347 8.68978 11.6737 8.87899 11.6679C9.06819 11.662 9.40541 11.8023 9.75197 12.3929C10.0826 12.9564 10.3249 13.7916 10.355 14.7618Z" stroke="#7578B5" stroke-width="1.46758"/>
</svg>
