<svg width="26" height="20" viewBox="0 0 26 20" fill="none" xmlns="http://www.w3.org/2000/svg">
<mask id="mask0" mask-type="alpha" maskUnits="userSpaceOnUse" x="0" y="0" width="26" height="20">
<path fill-rule="evenodd" clip-rule="evenodd" d="M25.1855 0.185547H-1.52588e-05V19.3799H25.1855V0.185547Z" fill="#1F1F41"/>
</mask>
<g mask="url(#mask0)">
<path fill-rule="evenodd" clip-rule="evenodd" d="M9.60991 5.24771C9.50085 5.07637 9.40202 4.88622 9.31882 4.68058C9.17542 4.32594 9.0962 3.97195 9.07704 3.64958C8.99895 2.96927 9.16317 2.41674 9.54926 2.25212C9.92888 2.09031 10.4264 2.34383 10.8528 2.8552C10.8521 2.82129 10.8514 2.78738 10.8514 2.75309C10.8514 1.33518 11.4951 0.185547 12.2892 0.185547C13.0834 0.185547 13.7271 1.33518 13.7271 2.75309C13.7271 2.85369 13.7236 2.95276 13.7172 3.05031C14.2003 2.3874 14.8353 2.04775 15.2889 2.26661C15.8562 2.54046 15.9248 3.58327 15.4421 4.59599C15.3612 4.76594 15.1797 5.05795 15.0812 5.20237C21.2388 6.18447 24.7442 11.1805 25.1855 19.38H21.7412C21.378 12.6298 18.2408 8.81705 12.5733 8.934C7.36891 9.04148 3.39144 12.4588 3.44488 19.38H0.000736237C-0.0621719 11.2145 3.951 6.51675 9.60991 5.24771Z" fill="#7578B5"/>
<path fill-rule="evenodd" clip-rule="evenodd" d="M15.4358 12.9185C15.851 12.9185 16.1875 13.2961 16.1875 13.7617V15.8331C16.1875 16.2989 15.851 16.6764 15.4358 16.6764C15.0208 16.6764 14.6843 16.2989 14.6843 15.8331V13.7617C14.6843 13.2961 15.0208 12.9185 15.4358 12.9185Z" fill="#7578B5"/>
<path fill-rule="evenodd" clip-rule="evenodd" d="M9.42232 12.9185C9.83734 12.9185 10.1738 13.2961 10.1738 13.7617V15.8331C10.1738 16.2989 9.83734 16.6764 9.42232 16.6764C9.00714 16.6764 8.67066 16.2989 8.67066 15.8331V13.7617C8.67066 13.2961 9.00714 12.9185 9.42232 12.9185Z" fill="#7578B5"/>
</g>
</svg>
