<svg width="30" height="30" viewBox="0 0 30 30" fill="none" xmlns="http://www.w3.org/2000/svg">
<path d="M14.5625 14.5929L24.125 19.7004C24.4692 19.879 24.89 19.6647 24.89 19.3075V9.87822C24.89 9.52105 24.4692 9.30675 24.125 9.48533L14.5625 14.5929Z" fill="#7578B5"/>
<path d="M23.9558 6.52329L17.6567 2.09976C17.362 1.88743 16.9569 2.02899 16.8832 2.38287L14.5625 12.2561L23.8821 7.30183C24.2136 7.12489 24.2136 6.73562 23.9558 6.52329Z" fill="#7578B5"/>
<path d="M17.6509 27.0844L23.9378 22.6153C24.2319 22.4025 24.1951 22.0123 23.901 21.835L14.5625 16.9048L16.842 26.8361C16.9155 27.1553 17.3567 27.2972 17.6509 27.0844Z" fill="#7578B5"/>
<path d="M11.7672 14.583L14.544 4.12594C14.6721 3.71316 14.074 3.40357 13.6468 3.67876L6.55536 8.04734C6.2136 8.28812 6 8.63211 6 9.01049V20.1555C6 20.5339 6.2136 20.8779 6.55536 21.1186L13.6468 25.5217C14.074 25.7624 14.6294 25.4873 14.544 25.0745L11.7672 14.583Z" fill="#7578B5"/>
</svg>
