<svg width="30" height="30" viewBox="0 0 30 30" fill="none" xmlns="http://www.w3.org/2000/svg">
<path d="M15.8857 16.2071C15.7243 15.8843 15.4014 15.4806 15.0785 15.1577C14.9978 15.2385 14.917 15.4806 14.917 15.5613C14.8364 15.8843 14.9978 15.8843 15.3207 15.9649C15.4821 15.9649 15.6436 16.0457 15.8857 16.2071Z" fill="#7578B5"/>
<path fill-rule="evenodd" clip-rule="evenodd" d="M15.9651 2.08072C10.8795 2.56506 6.76264 6.43976 5.95542 11.4446C6.27831 11.4446 6.52047 11.3638 6.6012 11.3638C6.6012 10.8795 6.76264 9.99156 7.32771 9.4265C8.94217 5.79397 12.494 3.29156 16.6915 3.29156C22.3422 3.29156 26.9433 7.89276 26.9433 13.6241C26.9433 17.9024 24.3602 21.5349 20.7277 23.1494C23.4722 21.4542 25.3289 18.3061 25.3289 14.7542C25.3289 9.34577 20.9698 4.90602 15.5614 4.90602C12.0904 4.90602 9.1036 6.68192 7.40843 9.4265C7.56988 9.26505 7.81204 9.18433 8.05421 9.18433C7.97349 10.0723 8.61927 10.3145 9.18433 9.83011C9.4265 9.34577 9.74939 8.86144 10.2337 8.53855C10.7988 8.21565 11.5253 8.13493 12.0904 8.13493C12.5747 8.13493 13.0591 8.29638 13.4627 8.45782C13.3819 8.13493 12.8976 7.73132 12.8168 7.73132C14.0277 7.08554 16.0457 7.89276 16.2879 9.26505C16.3687 8.61927 16.2879 7.97348 16.2879 7.97348C17.4988 8.45782 17.5795 10.153 17.4988 10.7181L19.1132 9.26505L17.5795 12.7361C17.6602 12.8169 17.6602 12.9783 17.7409 13.1397L17.8217 13.2205C17.9024 13.4626 17.9831 13.6241 18.0638 13.8663C18.1445 14.0277 18.2253 14.1891 18.306 14.4313C18.306 14.5927 18.2253 14.835 18.1445 15.1578C18.0638 15.4807 17.9832 15.8036 17.9832 15.965C18.0638 16.288 18.0638 16.6108 18.1445 16.9337C18.2253 17.418 18.3868 17.9024 18.5481 18.2253C18.6289 18.3867 18.6289 18.5482 18.7096 18.6289C19.194 19.0325 19.194 19.7591 19.194 20.0819C19.194 20.647 18.3868 21.2121 18.0638 21.4542C17.9831 21.4542 17.9831 21.5349 17.9024 21.5349C17.6602 21.6964 17.4181 21.777 17.2566 21.8578C17.0951 21.9385 16.9338 21.9385 16.7723 21.9385C16.2879 21.9385 15.077 21.2121 14.9157 20.9699C14.8349 20.8891 14.7542 20.4855 14.6735 20.0819C14.5927 19.7591 14.5121 19.4361 14.4313 19.194C14.2699 18.7904 14.1084 18.7097 13.947 18.5482C13.7048 18.3867 13.4627 18.2253 13.0591 17.6602C12.8976 17.9831 12.494 18.9518 12.2518 20.2434C12.171 20.647 12.171 21.2927 12.171 22.1C12.171 22.5036 12.171 22.9072 12.0904 23.3108C13.624 24.0374 15.2385 24.5217 17.0145 24.5217C21.5349 24.5217 25.4096 21.777 27.1856 17.9024C25.8132 23.553 20.8084 27.7506 14.7542 27.7506C7.73133 27.8313 2 22.0193 2 14.9156C2 7.81205 7.73133 2 14.7542 2C15.1578 2 15.5614 2 15.9651 2.08072ZM5.8747 12.0096C5.8747 12.3325 5.79397 12.7361 5.79397 13.059C6.03614 12.9783 6.35904 12.9783 6.6012 12.9783H6.52047C6.27831 13.059 6.03614 13.1397 5.79397 13.2205V13.3012C5.79397 14.2699 5.8747 15.1578 6.11687 16.0458C6.11687 15.965 6.11687 15.8844 6.11687 15.7229C6.11687 15.6422 6.27831 14.835 7.00481 13.7855C7.00481 13.8663 7.00481 14.0277 6.92409 14.1084C6.84337 14.512 6.76264 14.9156 6.92409 15.4C6.92409 14.9963 7.16626 13.7855 7.97349 13.382C7.73132 13.7855 7.56988 14.9963 7.81205 15.3193C7.81205 14.6735 8.21566 14.0277 8.78072 13.6241C9.18433 13.3012 11.2024 12.1711 11.2024 12.1711C11.2024 12.1711 10.7988 13.8663 11.6867 14.0277C11.5253 13.6241 11.7674 12.8976 12.171 12.4133C12.3325 12.2518 12.5747 12.0903 12.7361 12.0096V11.9289C12.6554 11.5253 12.6554 11.041 12.8168 10.7181C12.9783 10.8795 13.3012 11.041 13.624 11.1217C13.947 11.2024 14.2699 11.3638 14.5927 11.5253C14.8349 11.6867 14.9964 12.0096 15.1578 12.3325L15.3193 12.5747L15.4 12.7361V12.6554L16.6915 11.3638C17.0145 10.7988 17.0951 9.34577 16.4494 8.7C16.4494 9.10361 16.4494 10.8795 15.8036 11.2024C16.2879 10.0723 15.8036 7.97348 13.3819 7.97348C13.7855 8.29638 14.1084 8.86144 14.2699 9.18433C14.7542 9.26505 14.8349 9.50722 14.9964 9.66867L14.9157 9.58794C14.6735 9.34577 13.947 8.61927 12.2518 8.61927C11.6867 8.61927 11.1217 8.69999 10.6373 8.94216C11.4446 8.69999 12.3325 9.18433 13.0591 9.66867C12.9783 9.66867 12.8168 9.58794 12.7361 9.50722C12.2518 9.34577 11.6867 9.02289 10.8795 9.18433C10.4759 9.26505 10.2337 9.50722 9.91084 9.83011C9.74939 9.99156 9.58794 10.153 9.34577 10.3145C8.86144 10.5566 8.21566 10.5566 7.97349 10.0723C7.81205 9.99156 7.73132 9.83011 7.73132 9.66867C7.56988 9.83011 7.48915 9.99156 7.40843 10.153C7.16626 10.4759 7.08554 10.9602 7.16626 11.3638C7.40843 11.3638 7.6506 11.3638 7.89276 11.3638C8.13493 11.3638 8.3771 11.4446 8.61927 11.3638C8.94217 11.2831 9.34577 11.2024 9.58794 11.041C9.66867 10.9602 9.83011 10.8795 9.91084 10.7988C9.83011 10.8795 9.83011 10.9602 9.74939 11.041C9.50722 11.3638 9.18433 11.5253 8.78072 11.606C8.45783 11.6867 8.13493 11.6867 7.81205 11.606C7.56988 11.606 7.24698 11.5253 7.00481 11.606C6.84337 11.606 6.68192 11.6867 6.52047 11.7675C6.35904 11.8482 6.11687 11.9289 5.8747 12.0096ZM17.4988 11.2831L18.306 10.4759L16.853 13.4626C16.6915 13.5433 16.4494 13.4626 16.2072 13.3012C16.0457 13.1397 15.8843 12.9783 15.9651 12.8169L16.2879 12.4939C16.2879 12.5747 16.3687 12.6554 16.4494 12.7361C16.6108 12.8976 16.7723 12.9783 17.0145 12.8976C16.9338 12.8976 16.853 12.8976 16.853 12.8169C16.6108 12.7361 16.5301 12.4939 16.4494 12.3325L16.9338 11.8482C17.0144 12.0096 17.1759 12.1711 17.4181 12.0903C17.2566 12.0903 17.0951 11.8482 17.0145 11.6867L17.3374 11.2831C17.4181 11.3638 17.4988 11.3638 17.5795 11.3638C17.5795 11.4446 17.4988 11.3638 17.4988 11.2831ZM14.8349 15.965C14.6735 15.8036 14.6735 15.6422 14.6735 15.4C14.6735 15.2386 14.7542 14.9963 14.9157 14.835C14.7542 14.6735 14.5121 14.5927 14.2699 14.5927C14.8349 14.4313 15.2385 14.6735 15.6421 15.0771C15.8843 15.3193 16.2072 15.965 16.2879 16.2072C16.3687 16.4493 16.853 16.288 16.853 16.288C16.7723 16.4493 16.5301 16.6108 16.2879 16.6108C16.1265 16.6108 16.1265 16.5301 16.0457 16.4493V16.3687C15.8036 16.288 15.5614 16.2072 15.3193 16.1265C15.077 16.1265 14.9157 16.0458 14.8349 15.965ZM17.8217 19.9204C17.7409 19.4361 17.6602 19.1132 17.4181 19.1132C17.4181 19.1132 17.4988 18.9518 17.6602 19.0325C17.9024 19.194 17.8217 19.5976 17.8217 19.9204ZM17.9832 20.0012C18.0638 19.5976 17.9024 18.7097 17.4988 18.7097C17.2566 18.7097 17.0951 18.7904 17.0145 18.871L16.9338 18.9518C16.9338 18.871 16.9338 18.871 16.9338 18.7904C16.9338 18.3867 16.7723 18.0638 16.6108 17.6602C16.5301 17.4988 16.5301 17.418 16.4494 17.2566C16.7723 17.5795 17.0144 17.9831 17.1759 18.3867C17.2566 18.3061 17.4181 18.3061 17.5795 18.4674C18.2253 18.7904 18.2253 19.6783 17.9832 20.0012ZM17.0951 20.8891C16.6108 20.7277 15.6421 20.324 15.6421 20.0819C15.6421 19.9204 15.6421 19.6783 15.8036 19.5976C15.8843 19.8397 16.1265 20.0012 16.4494 20.1627C16.4494 20.1627 16.0457 19.7591 16.0457 19.4361H16.1265C16.2879 19.4361 16.3687 19.6783 16.4494 19.9204C16.5301 20.2434 16.7723 20.647 17.0951 20.8891ZM15.7229 16.5301C15.4 16.6916 14.9157 16.6108 14.6735 16.4493C14.3506 16.288 14.1891 15.8844 14.1891 15.5614C14.2699 15.6422 14.2699 15.7229 14.2699 15.8036C14.3506 16.0458 14.5121 16.2072 14.7542 16.3687C14.9157 16.4493 15.2385 16.5301 15.4807 16.5301C15.5614 16.5301 15.6421 16.5301 15.7229 16.5301ZM8.94217 19.3554C8.94217 19.5976 8.94217 19.7591 8.94217 19.9204C8.7 19.5976 8.61927 19.194 8.7 18.7904C8.86144 16.6108 10.6373 15.1578 10.7181 15.0771C9.58794 16.6108 9.18433 17.8217 9.02289 18.6289C8.94217 18.7904 8.94217 19.1132 8.94217 19.3554Z" fill="#7578B5"/>
<path d="M22.4234 14.7547C22.4234 18.4679 20.3246 21.7775 17.3379 23.392C21.2125 22.5041 24.0378 19.033 24.0378 14.9161C24.0378 11.1221 21.6161 7.89321 18.3065 6.68237C20.8089 8.45828 22.4234 11.445 22.4234 14.7547Z" fill="#7578B5"/>
<path d="M19.9204 14.5924C19.9204 14.5924 19.8398 13.8659 19.5975 13.6237C19.3554 13.3816 18.6289 13.3008 18.6289 13.3008C18.6289 13.3008 19.2747 13.2201 19.5975 12.978C19.8398 12.7358 19.9204 12.0093 19.9204 12.0093C19.9204 12.0093 20.0011 12.7358 20.2434 12.978C20.4855 13.2201 21.212 13.3008 21.212 13.3008C21.212 13.3008 20.5662 13.3816 20.2434 13.6237C19.9204 13.8659 19.9204 14.5924 19.9204 14.5924Z" fill="#7578B5"/>
<path d="M13.2207 21.9394C13.4628 22.1815 13.4628 22.6659 13.4628 22.6659C13.4628 22.6659 13.4628 22.1815 13.705 21.9394C13.9471 21.6972 14.4315 21.6972 14.4315 21.6972C14.4315 21.6972 13.9471 21.6972 13.705 21.4551C13.4628 21.2129 13.4628 20.7285 13.4628 20.7285C13.4628 20.7285 13.4628 21.2129 13.2207 21.4551C12.9785 21.6972 12.4941 21.6972 12.4941 21.6972C12.4941 21.6972 13.0592 21.6972 13.2207 21.9394Z" fill="#7578B5"/>
<path d="M20.8098 16.5308C20.8098 16.5308 20.8098 16.2079 20.6484 16.0465C20.487 15.885 20.1641 15.885 20.1641 15.885C20.1641 15.885 20.487 15.885 20.6484 15.7236C20.8098 15.5621 20.8098 15.2393 20.8098 15.2393C20.8098 15.2393 20.8098 15.5621 20.9713 15.7236C21.1328 15.885 21.4556 15.885 21.4556 15.885C21.4556 15.885 21.1328 15.885 20.9713 16.0465C20.8906 16.2079 20.8098 16.5308 20.8098 16.5308Z" fill="#7578B5"/>
</svg>
