<svg width="30" height="30" viewBox="0 0 30 30" fill="none" xmlns="http://www.w3.org/2000/svg">
<path d="M4.0332 5.3202H8.07646C8.12744 5.89571 8.17756 6.47208 8.23287 7.07178C8.46964 6.81255 8.67444 6.57923 8.89652 6.35974C9.72003 5.54487 10.7388 5.15947 11.8734 5.0454C12.7406 4.94381 13.6193 5.01309 14.4598 5.24934C15.6782 5.60795 16.5562 6.35629 17.0928 7.50903C17.1049 7.53496 17.1178 7.56088 17.1308 7.58594C17.1438 7.611 17.1481 7.60927 17.1714 7.64211C17.2872 7.46237 17.3944 7.28782 17.5084 7.11845C18.3276 5.8983 19.4752 5.23465 20.9304 5.08429C21.9466 4.97973 22.949 5.01775 23.9047 5.40402C25.582 6.08149 26.5291 7.35522 26.7607 9.131C26.8545 9.96726 26.8969 10.8085 26.8877 11.6499C26.9032 14.1196 26.8929 16.5902 26.8929 19.0598V19.3545H22.6154V19.0538C22.6154 16.3033 22.6241 13.5527 22.6007 10.8022C22.5878 10.307 22.5067 9.81583 22.3596 9.34272C22.1548 8.64623 21.6476 8.22799 20.9312 8.08195C20.0948 7.90913 19.2894 7.95579 18.5981 8.52698C18.0986 8.94349 17.8644 9.53369 17.7945 10.1559C17.7051 10.9701 17.6575 11.7883 17.6519 12.6074C17.6329 14.753 17.6458 16.8987 17.645 19.0443C17.645 19.1437 17.6363 19.2422 17.6311 19.3562H13.3692V19.0443C13.3692 16.3007 13.3762 13.5571 13.3615 10.8135C13.3576 10.3682 13.2995 9.92515 13.1886 9.49394C12.9735 8.64968 12.4023 8.16404 11.5364 8.03442C11.0577 7.95924 10.5686 7.98633 10.1011 8.11392C9.07194 8.39736 8.59753 9.1673 8.45927 10.1455C8.416 10.5235 8.3981 10.904 8.40569 11.2844C8.40166 13.8687 8.40166 16.4536 8.40569 19.0391V19.3554H4.13776C4.06086 14.6813 4.22677 10.015 4.0332 5.3202Z" fill="#7578B5"/>
<path d="M4 25.9895V22.52H26.8787V25.9895H4Z" fill="#7578B5"/>
</svg>
