<svg width="30" height="30" viewBox="0 0 30 30" fill="none" xmlns="http://www.w3.org/2000/svg">
<path fill-rule="evenodd" clip-rule="evenodd" d="M24.3152 7.35735C25.5023 6.47678 27.1859 7.32417 27.1859 8.80223V21.2108C27.1859 21.807 26.7026 22.2902 26.1065 22.2902C25.5104 22.2902 25.0271 21.807 25.0271 21.2108V9.51709L18.231 14.5582V21.7644C18.231 22.3605 17.7478 22.8438 17.1517 22.8438C16.5555 22.8438 16.0723 22.3605 16.0723 21.7644V14.3771C16.0723 13.8075 16.342 13.2716 16.7995 12.9322L24.3152 7.35735Z" fill="#7578B5"/>
<path fill-rule="evenodd" clip-rule="evenodd" d="M4.87039 7.35735C3.68326 6.47678 1.99965 7.32417 1.99965 8.80223V21.2108C1.99965 21.807 2.48291 22.2902 3.07904 22.2902C3.67517 22.2902 4.15843 21.807 4.15843 21.2108V9.51709L10.9545 14.5582V21.7644C10.9545 22.3605 11.4378 22.8438 12.0339 22.8438C12.63 22.8438 13.1133 22.3605 13.1133 21.7644V14.3771C13.1133 13.8075 12.8435 13.2716 12.3861 12.9322L4.87039 7.35735Z" fill="#7578B5"/>
</svg>
