<svg width="30" height="30" viewBox="0 0 30 30" fill="none" xmlns="http://www.w3.org/2000/svg">
<g clip-path="url(#clip0)">
<path d="M12.2844 26.9989C10.4705 26.9989 8.8357 26.3566 7.55454 25.1417C5.90638 23.5787 5 21.2305 5 18.5299C5 15.3753 6.67151 12.6514 7.89262 10.663L8.07946 10.3571C8.20624 10.1497 8.44868 10.0323 8.69891 10.0587C8.94913 10.0841 9.16044 10.2471 9.23828 10.4757C10.0423 12.8345 11.2735 14.6556 12.3589 16.2621C13.5811 18.0706 14.6365 19.6325 14.6365 21.3606C14.6365 22.7628 13.5756 23.7798 12.1142 23.7798C11.2646 23.7798 10.4827 23.4327 9.84995 22.7766C8.62106 21.5003 8.10503 19.2094 8.24405 17.7014C8.27519 17.3669 8.58547 17.1193 8.93579 17.1489C9.28722 17.1785 9.54634 17.4727 9.51631 17.8072C9.40176 19.0474 9.85773 20.986 10.7919 21.9554C11.1867 22.3649 11.6193 22.5649 12.1153 22.5649C12.8838 22.5649 13.3609 22.1035 13.3609 21.3606C13.3609 19.9892 12.4445 18.6346 11.2857 16.9192C10.3515 15.5372 9.31391 14.0017 8.49872 12.0905C7.44221 13.8588 6.2756 16.0949 6.2756 18.5299C6.2756 20.9056 7.04963 22.948 8.45535 24.2814C9.49185 25.2645 10.8153 25.7841 12.2844 25.7841C12.291 25.7841 12.2966 25.7841 12.3022 25.7841C14.7922 25.7767 16.6706 23.9502 16.6706 21.5353C16.6706 19.0738 15.2471 16.9647 13.8714 14.9244C12.5101 12.9064 11.1022 10.8206 11.0944 8.40469C11.0944 6.34218 12.1365 4.46698 14.0282 3.1209C14.294 2.93254 14.6665 2.96746 14.8867 3.20344C16.3814 4.79821 23.8382 13.0504 23.8571 18.9024C23.8671 21.9152 22.666 24.5311 20.5619 26.0793C20.3517 26.2338 20.0625 26.2487 19.8357 26.1164C19.6099 25.983 19.4931 25.7313 19.5443 25.4825C19.9024 23.7386 19.9658 23.2062 19.9658 21.9205C19.9658 18.1881 17.8172 14.8112 15.9221 11.8334C15.3772 10.9773 14.8634 10.1698 14.4141 9.37933C14.2461 9.08408 14.3618 8.71581 14.6721 8.55602C14.9813 8.39622 15.3694 8.50628 15.5373 8.80153C15.9722 9.56558 16.4782 10.3614 17.0142 11.2048C18.996 14.3191 21.2425 17.8494 21.2425 21.9215C21.2425 22.639 21.2236 23.1459 21.1513 23.729C22.0799 22.4411 22.587 20.7659 22.5804 18.9066C22.567 14.8504 18.222 8.69041 14.3373 4.44899C13.4554 5.19611 12.3711 6.50198 12.3711 8.40469C12.3778 10.464 13.6256 12.3128 14.9457 14.2694C16.4215 16.4568 17.9473 18.7182 17.9473 21.5363C17.9473 24.5904 15.4695 26.9905 12.3066 27C12.2999 26.999 12.2922 26.9989 12.2844 26.9989Z" fill="#7578B5"/>
</g>
<defs>
<clipPath id="clip0">
<rect width="19" height="24" fill="white" transform="translate(5 3)"/>
</clipPath>
</defs>
</svg>
