<svg width="24" height="24" viewBox="0 0 24 24" fill="none" xmlns="http://www.w3.org/2000/svg">
<path fill-rule="evenodd" clip-rule="evenodd" d="M22.8229 15.2081L18.5174 21.2097C17.8402 22.1627 16.5263 22.6216 14.8182 22.4811C12.6149 22.2992 9.69397 21.1348 6.89434 19.1266C4.09471 17.1173 2.05318 14.724 1.16377 12.6975C0.486603 11.1269 0.496631 9.74027 1.1839 8.78617L5.47937 2.78462C6.16664 1.83153 7.48051 1.37266 9.17848 1.51315C11.3818 1.69508 14.3128 2.86043 17.1124 4.86868C19.9121 6.87694 21.9536 9.27028 22.833 11.2967C23.5202 12.8674 23.5001 14.255 22.8229 15.2081ZM6.6316 3.60936C7.07631 2.99283 7.96568 2.83317 9.06734 2.92413C11.0786 3.08988 13.7267 4.18544 16.2838 6.01885C18.8408 7.85124 20.7308 10.0111 21.5394 11.8607C21.974 12.8744 22.1154 13.7679 21.6707 14.3844L22.2469 14.7958L21.6707 14.3844L17.3651 20.3859C16.9305 21.0014 16.0411 21.1621 14.9394 21.0701C12.9282 20.9054 10.27 19.8088 7.71297 17.9764C5.1559 16.143 3.26586 13.9832 2.46741 12.1346C2.0227 11.1199 1.89143 10.2264 2.33614 9.61087L6.6316 3.60936Z" fill="white"/>
<path fill-rule="evenodd" clip-rule="evenodd" d="M6.06325 3.34534C7.46811 1.38458 12.2284 2.39126 16.6957 5.59113C21.163 8.792 23.6493 12.9833 22.2445 14.9441L17.949 20.9456C16.5441 22.9064 11.7736 21.8997 7.30628 18.6989C2.839 15.498 0.352848 11.3076 1.75772 9.34684L6.06325 3.34534Z" fill="white"/>
<path fill-rule="evenodd" clip-rule="evenodd" d="M5.75332 2.97469C6.37828 2.09974 7.5865 1.71441 9.1489 1.8394C11.305 2.01648 14.159 3.17261 16.9088 5.13082C19.6482 7.09945 21.6586 9.44309 22.5127 11.4221C23.1377 12.8595 23.1584 14.1302 22.5335 15.0052L18.2422 21.0049C17.6172 21.8798 16.3986 22.2651 14.8466 22.1402C12.6905 21.9527 9.82606 20.807 7.08665 18.8384C4.33683 16.8801 2.33692 14.5365 1.47239 12.5574C0.847429 11.12 0.826678 9.84932 1.45164 8.97437L5.75332 2.97469ZM21.9398 14.5782V14.5678C22.4398 13.8803 22.3356 12.8595 21.846 11.7138C21.0232 9.82847 19.0963 7.60982 16.4714 5.73493C13.857 3.86005 11.1384 2.74556 9.08645 2.5789C7.83653 2.47474 6.84713 2.70393 6.34716 3.40181L6.3262 3.44341C5.85748 4.14128 5.96177 5.1308 6.45132 6.25573C7.27418 8.15145 9.20114 10.3701 11.8156 12.2449C14.43 14.1198 17.1484 15.2344 19.2003 15.4011C20.4294 15.4948 21.3981 15.2761 21.9085 14.6199L21.9398 14.5678V14.5782ZM15.2528 7.43282C16.5653 8.37027 17.5338 9.48476 17.94 10.4326C18.1796 10.9638 18.2421 11.4326 18.0025 11.7555C17.7733 12.0784 17.3047 12.1721 16.7318 12.12C15.7006 12.0367 14.3466 11.4742 13.0342 10.5368C11.7217 9.59933 10.753 8.49522 10.3467 7.54736C10.1176 7.01614 10.0551 6.5474 10.2843 6.22451C10.5134 5.90161 10.9822 5.80791 11.5655 5.84957C12.5863 5.94331 13.9508 6.49538 15.2528 7.43282Z" fill="#7578B5"/>
<path d="M5.32324 5.12109C5.43782 7.86051 8.1356 10.4749 10.2084 12.2456C13.0936 14.7038 17.7393 16.5475 20.3329 16.1308" stroke="white" stroke-width="0.01302" stroke-linecap="round" stroke-linejoin="round" stroke-dasharray="0.03 0.03 0.33 0.33"/>
</svg>
