<svg width="30" height="30" viewBox="0 0 30 30" fill="none" xmlns="http://www.w3.org/2000/svg">
<path fill-rule="evenodd" clip-rule="evenodd" d="M23.5951 9.62538C23.1711 10.0291 22.5 10.0126 22.0963 9.58858L20.9999 8.43686C19.3851 6.74062 16.701 6.6746 15.0048 8.2894L7.6447 15.2961L14.6243 15.4678C15.2096 15.4822 15.6724 15.9684 15.658 16.5536C15.6436 17.139 15.1575 17.6018 14.5721 17.5874L5.03406 17.3528C4.44873 17.3385 3.98592 16.8523 4.00033 16.267L4.2349 6.7289C4.2493 6.14357 4.7354 5.68076 5.32074 5.69516C5.90607 5.70957 6.36888 6.19567 6.35447 6.781L6.18282 13.7605L13.5429 6.75378C16.0872 4.33162 20.1134 4.43064 22.5355 6.97491L23.632 8.12663C24.0356 8.55071 24.0192 9.22169 23.5951 9.62538Z" fill="#7578B5"/>
<path fill-rule="evenodd" clip-rule="evenodd" d="M7.29987 19.4802C7.72388 19.0765 8.39494 19.0929 8.79862 19.517L9.89507 20.6687C11.5099 22.365 14.194 22.4309 15.8901 20.8162L23.2503 13.8094L16.2707 13.6377C15.6854 13.6234 15.2226 13.1372 15.2369 12.5519C15.2513 11.9666 15.7375 11.5037 16.3228 11.5181L25.8609 11.7527C26.4462 11.7671 26.909 12.2533 26.8946 12.8386L26.6601 22.3767C26.6457 22.962 26.1596 23.4248 25.5742 23.4104C24.9889 23.396 24.5261 22.9099 24.5405 22.3246L24.7122 15.345L17.352 22.3518C14.8077 24.774 10.7816 24.675 8.35945 22.1307L7.263 20.9789C6.85932 20.5549 6.87579 19.8838 7.29987 19.4802Z" fill="#7578B5"/>
</svg>
